FFmpeg version SVN-r25716, Copyright (c) 2000-2010 the FFmpeg developers  built on Nov 10 2010 12:23:18 with gcc 4.1.2 20080704 (Red Hat 4.1.2-48)  configuration: --enable-libmp3lame --enable-shared --disable-mmx --arch=x86_64  libavutil     50.33. 0 / 50.33. 0  libavcore      0.12. 1 /  0.12. 1  libavcodec    52.94. 4 / 52.94. 4  libavformat   52.84. 0 / 52.84. 0  libavdevice   52. 2. 2 / 52. 2. 2  libavfilter    1.59. 0 /  1.59. 0  libswscale     0.12. 0 /  0.12. 0[mov,mp4,m4a,3gp,3g2,mj2 @ 0x37d74c0] max_analyze_duration reachedSeems stream 0 codec frame rate differs from container frame rate: 600.00 (600/1) -> 5.00 (5/1)Input #0, mov,mp4,m4a,3gp,3g2,mj2, from '/RAID10/data/converted_video_files/23606.mov':  Metadata:    major_brand     : qt      minor_version   : 537199360    compatible_brands: qt    Duration: 00:00:11.60, bitrate: 3675 kb/s    Stream #0.0(eng): Video: svq1, yuv410p, 1305x335, 3674 kb/s, 5 fps, 5 tbr, 600 tbn, 600 tbc[buffer @ 0x37dca20] w:1305 h:335 pixfmt:yuv410p[ffsink @ 0x37dcc90] auto-inserting filter 'auto-inserted scaler 0' between the filter 'src' and the filter 'out'[scale @ 0x37dcf50] w:1305 h:335 fmt:yuv410p -> w:1305 h:335 fmt:yuv420p flags:0x4Output #0, flv, to '/RAID10/data/converted_video_files/23606.flv':  Metadata:    encoder         : Lavf52.84.0    Stream #0.0(eng): Video: flv, yuv420p, 1305x335, q=2-31, 600 kb/s, 1k tbn, 24 tbcStream mapping:  Stream #0.0 -> #0.0Press [q] to stop encodingframe=   17 fps=  0 q=31.0 size=     643kB time=3.25 bitrate=1621.4kbits/s    frame=   35 fps= 30 q=31.0 size=     722kB time=6.83 bitrate= 865.1kbits/s    frame=   47 fps= 28 q=31.0 size=     767kB time=9.25 bitrate= 679.6kbits/s    frame=   58 fps= 27 q=28.6 Lsize=     767kB time=11.46 bitrate= 548.5kbits/s    video:766kB audio:0kB global headers:0kB muxing overhead 0.145054%5054%